<svg width="16" height="16" viewBox="0 0 16 16" fill="none" xmlns="http://www.w3.org/2000/svg">
<path d="M8.32543 10.6247C8.49943 10.6034 8.65852 10.5643 8.8027 10.5072C9.03503 10.4138 9.21685 10.285 9.34816 10.1209C9.47947 9.95422 9.54639 9.75978 9.54892 9.53755C9.54639 9.33553 9.48705 9.16887 9.37089 9.03755C9.25472 8.90371 9.09185 8.7926 8.88225 8.70422C8.7187 8.63242 8.53309 8.56692 8.32543 8.50771V10.6247Z" fill="#7D8FA9"/>
<path d="M7.70422 7.0674V5.07365C7.54768 5.09482 7.40626 5.13203 7.27998 5.18528C7.07038 5.27366 6.91003 5.39361 6.79892 5.54513C6.68781 5.69664 6.63099 5.86962 6.62846 6.06407C6.62846 6.22568 6.66508 6.36584 6.73831 6.48452C6.81407 6.60321 6.91634 6.70422 7.04513 6.78755C7.17392 6.86836 7.31659 6.93654 7.47316 6.9921C7.54988 7.01932 7.6269 7.04442 7.70422 7.0674Z" fill="#7D8FA9"/>
<path fill-rule="evenodd" clip-rule="evenodd" d="M7.99967 14.6663C11.6816 14.6663 14.6663 11.6816 14.6663 7.99967C14.6663 4.31778 11.6816 1.33301 7.99967 1.33301C4.31778 1.33301 1.33301 4.31778 1.33301 7.99967C1.33301 11.6816 4.31778 14.6663 7.99967 14.6663ZM7.70422 11.8359V12.6966H8.32543V11.8357C8.81269 11.8083 9.23693 11.7152 9.59816 11.5565C10.0376 11.362 10.3734 11.0931 10.6057 10.7497C10.8381 10.4037 10.9542 10.0035 10.9542 9.54892C10.9542 9.21306 10.8911 8.92013 10.7648 8.67013C10.6386 8.42013 10.4668 8.20675 10.2497 8.02998C10.035 7.85321 9.79134 7.70675 9.51861 7.59058C9.24841 7.47442 8.96685 7.38225 8.67392 7.31407L8.32543 7.22695V5.06924C8.61127 5.1033 8.85243 5.18996 9.04892 5.32922C9.31154 5.51356 9.46053 5.77114 9.49589 6.10195H10.8482C10.8406 5.66508 10.7181 5.27871 10.4807 4.94286C10.2434 4.60447 9.91634 4.34058 9.49967 4.15119C9.15538 3.99164 8.76397 3.89841 8.32543 3.8715V2.99967H7.70422V3.87711C7.29961 3.90994 6.92966 4.0013 6.59437 4.15119C6.16508 4.34058 5.82543 4.607 5.57543 4.95043C5.32796 5.29387 5.20422 5.69412 5.20422 6.15119C5.20422 6.70675 5.38856 7.15245 5.75725 7.48831C6.12846 7.82164 6.63351 8.07038 7.2724 8.23452L7.70422 8.34572V10.6276C7.52573 10.6075 7.35907 10.5687 7.20422 10.511C6.96937 10.4227 6.77871 10.2888 6.63225 10.1095C6.48579 9.93023 6.40245 9.70548 6.38225 9.43528H4.99967C5.01988 9.95043 5.15371 10.3873 5.40119 10.7459C5.65119 11.1045 5.99715 11.3772 6.43907 11.5641C6.80644 11.7185 7.22815 11.8092 7.70422 11.8359Z" fill="#7D8FA9"/>
</svg>
