<svg width="20" height="20" viewBox="0 0 20 20" fill="none" xmlns="http://www.w3.org/2000/svg">
<path fill-rule="evenodd" clip-rule="evenodd" d="M13.3337 3.33366H6.66699C4.82604 3.33366 3.33366 4.82604 3.33366 6.66699V13.3337C3.33366 15.1746 4.82604 16.667 6.66699 16.667H13.3337C15.1746 16.667 16.667 15.1746 16.667 13.3337V6.66699C16.667 4.82604 15.1746 3.33366 13.3337 3.33366ZM6.66699 1.66699C3.90557 1.66699 1.66699 3.90557 1.66699 6.66699V13.3337C1.66699 16.0951 3.90557 18.3337 6.66699 18.3337H13.3337C16.0951 18.3337 18.3337 16.0951 18.3337 13.3337V6.66699C18.3337 3.90557 16.0951 1.66699 13.3337 1.66699H6.66699ZM10.0003 12.5003C11.381 12.5003 12.5003 11.381 12.5003 10.0003C12.5003 8.61961 11.381 7.50033 10.0003 7.50033C8.61961 7.50033 7.50033 8.61961 7.50033 10.0003C7.50033 11.381 8.61961 12.5003 10.0003 12.5003ZM10.0003 14.167C12.3015 14.167 14.167 12.3015 14.167 10.0003C14.167 7.69914 12.3015 5.83366 10.0003 5.83366C7.69914 5.83366 5.83366 7.69914 5.83366 10.0003C5.83366 12.3015 7.69914 14.167 10.0003 14.167ZM14.1667 7.00041C14.811 7.00041 15.3333 6.47807 15.3333 5.83374C15.3333 5.18941 14.811 4.66707 14.1667 4.66707C13.5223 4.66707 13 5.18941 13 5.83374C13 6.47807 13.5223 7.00041 14.1667 7.00041Z" fill="#7D8FA9"/>
</svg>
