<svg width="16" height="16" viewBox="0 0 16 16" fill="none" xmlns="http://www.w3.org/2000/svg">
<path d="M8.49979 11.1757C7.95439 11.9802 7.38798 12.6449 6.84719 13.1384C6.34505 13.5967 5.91595 13.8606 5.59562 13.9799C5.50998 14.0118 5.43943 14.0307 5.38234 14.0414C5.3357 14.0505 5.29851 14.054 5.26998 14.0544C5.21205 14.0554 5.18935 14.0455 5.18286 14.0425C5.17991 14.0411 5.17342 14.0381 5.16419 14.0309C5.15318 14.0222 5.13764 14.0077 5.11775 13.9834C5.07795 13.9339 5.02097 13.842 4.96545 13.6861C4.85092 13.364 4.77731 12.8656 4.80564 12.1864C4.83604 11.4549 4.98116 10.5937 5.24688 9.65881L8.49979 11.1757Z" fill="#7D8FA9"/>
<path d="M9.72236 11.7458C8.90181 12.9909 8.00648 13.9828 7.15142 14.6149C9.06036 14.86 10.9832 14.2603 12.4127 13.0003L9.72236 11.7458Z" fill="#7D8FA9"/>
<path d="M3.47898 12.9024C2.0642 11.5976 1.2876 9.73917 1.334 7.8342L4.0243 9.08871C3.59791 10.5177 3.41358 11.8411 3.47898 12.9024Z" fill="#7D8FA9"/>
<path d="M5.66905 8.3845L9.2046 10.0332C9.4154 9.65734 9.61923 9.26104 9.81293 8.84565C10.0066 8.43026 10.1792 8.01938 10.3316 7.61633L6.79603 5.96768C6.58523 6.34349 6.3814 6.73979 6.1877 7.15518C5.994 7.57057 5.82144 7.98145 5.66905 8.3845Z" fill="#7D8FA9"/>
<path d="M5.58467 5.40281C5.37399 5.78299 5.17134 6.17984 4.97929 6.59169C4.78724 7.00354 4.6135 7.41387 4.45769 7.81964L1.51573 6.44778C1.61851 6.02016 1.76539 5.59658 1.95826 5.18296C2.15114 4.76934 2.38121 4.38456 2.64271 4.03096L5.58467 5.40281Z" fill="#7D8FA9"/>
<path d="M7.50084 4.82517L10.7538 6.34203C11.0195 5.40709 11.1646 4.54594 11.195 3.81447C11.2233 3.1352 11.1497 2.63682 11.0352 2.31476C10.9797 2.15885 10.9227 2.06691 10.8829 2.01746C10.8684 1.99994 10.8561 1.98775 10.8463 1.97885C10.8311 1.96528 10.8216 1.96015 10.8178 1.95837C10.8113 1.95534 10.7886 1.94547 10.7306 1.94647C10.6672 1.94777 10.5601 1.96322 10.405 2.0209C10.0847 2.14019 9.65558 2.40415 9.15344 2.86248C8.61264 3.35595 8.04624 4.02065 7.50084 4.82517Z" fill="#7D8FA9"/>
<path d="M8.84921 1.38593C7.99414 2.01804 7.09881 3.00993 6.27827 4.25507L3.58796 3.00056C5.01742 1.74053 6.94027 1.14086 8.84921 1.38593Z" fill="#7D8FA9"/>
<path d="M12.5216 3.09842C12.587 4.15974 12.4027 5.48318 11.9763 6.91212L14.6666 8.16663C14.713 6.26167 13.9364 4.40322 12.5216 3.09842Z" fill="#7D8FA9"/>
<path d="M11.5429 8.1812L14.4849 9.55306C14.3821 9.98067 14.2352 10.4043 14.0424 10.8179C13.8495 11.2315 13.6194 11.6163 13.3579 11.9699L10.416 10.598C10.6266 10.2178 10.8293 9.821 11.0213 9.40915C11.2134 8.99729 11.3871 8.58696 11.5429 8.1812Z" fill="#7D8FA9"/>
</svg>
