<svg width="20" height="20" viewBox="0 0 20 20" fill="none" xmlns="http://www.w3.org/2000/svg">
<path d="M16.6274 6.6142C16.6375 6.76051 16.6375 6.90683 16.6375 7.0545C16.6375 11.5539 13.1979 16.7431 6.90838 16.7431V16.7404C5.05043 16.7431 3.23108 16.2131 1.66699 15.2138C1.93715 15.2462 2.20867 15.2624 2.48086 15.263C4.02057 15.2644 5.51627 14.7499 6.72759 13.8026C5.26439 13.7749 3.9813 12.8249 3.53306 11.4379C4.04562 11.5364 4.57376 11.5161 5.07684 11.3793C3.4816 11.0583 2.33393 9.66257 2.33393 8.04163V7.99847C2.80925 8.26211 3.34145 8.40843 3.88583 8.42461C2.38336 7.42467 1.92023 5.43423 2.82753 3.87801C4.5636 6.00533 7.12505 7.29858 9.87472 7.43546C9.59915 6.25279 9.97561 5.01348 10.864 4.18211C12.2412 2.89291 14.4072 2.95899 15.7018 4.32977C16.4676 4.17941 17.2016 3.89959 17.8732 3.50312C17.618 4.29134 17.0837 4.96089 16.3701 5.38635C17.0479 5.30679 17.7101 5.12609 18.3337 4.85031C17.8746 5.53537 17.2964 6.1321 16.6274 6.6142Z" fill="#7D8FA9"/>
</svg>
