<svg width="20" height="20" viewBox="0 0 20 20" fill="none" xmlns="http://www.w3.org/2000/svg">
<path d="M5.25112 6.38314V18.3337H2.05916V6.38314H5.25112ZM1.86035 3.26849C1.86035 2.80461 2.02234 2.42172 2.34632 2.11983C2.67031 1.81794 3.10474 1.66699 3.64962 1.66699C4.18713 1.66699 4.61788 1.81794 4.94186 2.11983C5.27321 2.42172 5.43888 2.80461 5.43888 3.26849C5.43888 3.73238 5.27321 4.11527 4.94186 4.41716C4.61788 4.71905 4.18713 4.87 3.64962 4.87C3.10474 4.87 2.67031 4.71905 2.34632 4.41716C2.02234 4.11527 1.86035 3.73238 1.86035 3.26849Z" fill="#7D8FA9"/>
<path d="M10.9944 8.9345V18.3337H7.81352V6.38314H10.7956L10.9944 8.9345ZM10.5306 11.9387H9.66906C9.66906 11.0551 9.78319 10.2599 10.0114 9.55301C10.2397 8.83878 10.56 8.23131 10.9723 7.73061C11.3847 7.22255 11.8743 6.83598 12.4413 6.5709C13.0156 6.29846 13.6562 6.16224 14.3631 6.16224C14.9227 6.16224 15.4345 6.24324 15.8983 6.40523C16.3622 6.56722 16.7598 6.82493 17.0912 7.17837C17.4299 7.5318 17.6876 7.99937 17.8643 8.58106C18.0484 9.16276 18.1404 9.87331 18.1404 10.7127V18.3337H14.9374V10.7017C14.9374 10.1715 14.8638 9.75918 14.7165 9.46465C14.5693 9.17012 14.3521 8.96395 14.0649 8.84614C13.7851 8.72096 13.439 8.65838 13.0267 8.65838C12.5996 8.65838 12.2278 8.74305 11.9112 8.91241C11.6019 9.08176 11.3442 9.31739 11.138 9.61928C10.9392 9.91381 10.7883 10.2599 10.6852 10.6575C10.5821 11.0551 10.5306 11.4822 10.5306 11.9387Z" fill="#7D8FA9"/>
</svg>
