<svg width="24" height="24" viewBox="0 0 24 24" fill="none" xmlns="http://www.w3.org/2000/svg">
<path fill-rule="evenodd" clip-rule="evenodd" d="M15.8098 17.223C12.6712 19.6655 8.13243 19.4452 5.24738 16.5601C2.1234 13.4361 2.12314 8.37063 5.24738 5.2464C8.37161 2.12216 13.4371 2.12242 16.5611 5.2464C19.4461 8.13145 19.6665 12.6702 17.224 15.8088L20.8037 19.3885C20.9916 19.5764 21.0897 19.8207 21.096 20.0658C21.1038 20.3315 21.0066 20.5999 20.8037 20.8027C20.4132 21.1932 19.7804 21.1936 19.3895 20.8027L15.8098 17.223ZM15.1469 6.66061C17.4905 9.00428 17.49 12.8027 15.1469 15.1459C12.8037 17.489 9.00526 17.4896 6.66159 15.1459C4.31792 12.8022 4.31843 9.00377 6.66159 6.66061C9.00474 4.31746 12.8032 4.31694 15.1469 6.66061Z" fill="white"/>
</svg>
