<svg width="16" height="16" viewBox="0 0 16 16" fill="none" xmlns="http://www.w3.org/2000/svg">
<path fill-rule="evenodd" clip-rule="evenodd" d="M6.80287 1.8713C6.6502 1.64217 6.37135 1.52739 6.10731 1.60544C5.08386 1.90797 4.16295 2.44919 3.40928 3.16523C3.20957 3.35497 3.16939 3.65395 3.29152 3.90088L3.71419 4.75546L3.04753 5.91041L2.09409 5.97205C1.81912 5.98983 1.58025 6.17425 1.51609 6.44223C1.39641 6.94214 1.33301 7.46346 1.33301 8.00025C1.33301 8.53678 1.3963 9.05863 1.51581 9.55807C1.57996 9.82617 1.81908 10.0105 2.09418 10.028L3.04753 10.0888L3.71419 11.2437L3.29117 12.0997C3.16915 12.3466 3.20935 12.6455 3.40901 12.8352C4.16272 13.5513 5.08373 14.0925 6.10731 14.3951C6.37135 14.4731 6.6502 14.3583 6.80287 14.1292L7.33301 13.3336H8.66634L9.19648 14.1292C9.34915 14.3583 9.628 14.4731 9.89204 14.3951C10.9156 14.0925 11.8366 13.5513 12.5903 12.8352C12.79 12.6455 12.8302 12.3466 12.7082 12.0997L12.2852 11.2437L12.9518 10.0888L13.9052 10.028C14.1803 10.0105 14.4194 9.82617 14.4835 9.55807C14.6031 9.05863 14.6663 8.53678 14.6663 8.00025C14.6663 7.46346 14.6029 6.94214 14.4833 6.44223C14.4191 6.17425 14.1802 5.98983 13.9053 5.97205L12.9518 5.91041L12.2852 4.75546L12.7078 3.90088C12.83 3.65395 12.7898 3.35497 12.5901 3.16523C11.8364 2.44919 10.9155 1.90797 9.89204 1.60544C9.628 1.52739 9.34915 1.64217 9.19647 1.8713L8.66634 2.66692H7.33301L6.80287 1.8713ZM7.99967 10.6669C9.47243 10.6669 10.6663 9.47301 10.6663 8.00025C10.6663 6.52749 9.47243 5.33358 7.99967 5.33358C6.52691 5.33358 5.33301 6.52749 5.33301 8.00025C5.33301 9.47301 6.52691 10.6669 7.99967 10.6669Z" fill="#7D8FA9"/>
</svg>
