<svg width="16" height="16" viewBox="0 0 16 16" fill="none" xmlns="http://www.w3.org/2000/svg">
<path d="M12.8525 1.33301C13.1394 1.33301 13.3942 1.5166 13.4849 1.78882L14.6321 5.23039C14.6548 5.29834 14.6677 5.36971 14.662 5.44116C14.607 6.12695 14.0329 6.66634 13.333 6.66634C12.5966 6.66634 11.9997 6.06942 11.9997 5.33301C11.9997 6.06942 11.4027 6.66634 10.6663 6.66634C9.92995 6.66634 9.33298 6.06942 9.33298 5.33301C9.33298 6.06942 8.73602 6.66634 7.99965 6.66634C7.26328 6.66634 6.66632 6.06942 6.66632 5.33301C6.66632 6.06942 6.06935 6.66634 5.33298 6.66634C4.59662 6.66634 3.99965 6.06942 3.99965 5.33301C3.99965 6.06942 3.40269 6.66634 2.66632 6.66634C1.96637 6.66634 1.39235 6.12695 1.3373 5.44116C1.33331 5.3916 1.33832 5.34212 1.34934 5.29378C1.35423 5.27238 1.36025 5.25122 1.36721 5.23039L2.51438 1.78882C2.60512 1.5166 2.85988 1.33301 3.14683 1.33301H12.8525Z" fill="#7D8FA9"/>
<path d="M4.00002 9.33284C4.00002 9.70103 4.29849 9.99951 4.66668 9.99951H11.3334C11.7015 9.99951 12 9.70103 12 9.33284V7.6429C12.3922 7.86971 12.8474 7.99943 13.333 7.99943C13.5633 7.99943 13.7868 7.9703 14 7.91545V13.9994C14 14.3676 13.7015 14.6661 13.3334 14.6661H2.66668C2.29849 14.6661 2.00002 14.3676 2.00002 13.9994V7.91561C2.21295 7.97038 2.43622 7.99943 2.66632 7.99943C3.15204 7.99943 3.60776 7.86979 4.00002 7.6429V9.33284Z" fill="#7D8FA9"/>
</svg>
